#!OML:ASF F:\VICON\USERDATA\INSTALL\Justin_Nancy\Justin_Nancy.ASF
:FULLY-SPECIFIED
:DEGREES
158
root -7.76968 17.5041 -7.35291 0.688301 14.9729 -6.07575
lowerback 6.15065 1.07392 3.73649
upperback 0.223591 1.78685 2.58845
thorax -3.18901 0.854252 0.418946
lowerneck -13.3422 -3.98236 -8.46958
upperneck 22.6619 -4.58357 4.36442
head 9.67687 -2.35638 2.37467
rclavicle 1.99282e-014 3.06128e-014
rhumerus -28.7704 -9.35284 -76.8346
rradius 32.2134
rwrist 6.07474
rhand -14.6174 12.1996
rfingers 7.12502
rthumb 11.5338 -17.463
lclavicle 1.99282e-014 3.06128e-014
lhumerus -34.4619 7.62755 84.603
lradius 26.1204
lwrist -10.5468
lhand -14.0514 29.6281
lfingers 7.12502
lthumb 12.0796 59.2594
rfemur -2.9912 2.33285 28.8865
rtibia 21.2704
rfoot -12.8783 -13.5479
rtoes 0.527531
lfemur -33.179 5.58176 -19.1765
ltibia 37.713
lfoot -13.7935 7.55714
ltoes -4.40718
159
root -7.73125 17.5051 -7.22291 0.839741 15.243 -6.06274
lowerback 6.02789 1.1477 3.75652
upperback 0.32479 1.87545 2.60171
thorax -3.01351 0.901519 0.417657
lowerneck -13.8262 -4.04561 -8.57991
upperneck 22.8645 -4.58976 4.29836
head 9.84325 -2.37108 2.36405
rclavicle -1.44367e-014 1.59028e-015
rhumerus -28.0753 -9.10628 -76.7239
rradius 32.0706
rwrist 6.02546
rhand -14.8451 11.9917
rfingers 7.12502
rthumb 11.3141 -17.6831
lclavicle -1.44367e-014 1.59028e-015
lhumerus -33.939 8.96545 84.1964
lradius 25.1275
lwrist -11.4853
lhand -14.1166 28.4246
lfingers 7.12502
lthumb 12.0166 58.0596
rfemur -2.29046 2.16739 28.8802
rtibia 20.5593
rfoot -12.8983 -13.6606
rtoes 0.546566
lfemur -33.3939 5.38141 -19.2376
ltibia 35.6175
lfoot -13.5321 8.30702
ltoes -3.30121
160
root -7.69193 17.5018 -7.09561 1.03901 15.4786 -5.95417
lowerback 5.83662 1.19673 3.62889
upperback 0.477949 1.91596 2.64428
thorax -2.75268 0.928537 0.53558
lowerneck -14.2726 -4.01036 -8.74746
upperneck 22.806 -4.45899 4.30871
head 9.90287 -2.31778 2.4066
rclavicle 1.69961e-014 -3.37934e-015
rhumerus -27.2507 -8.79469 -76.5913
rradius 31.8885
rwrist 6.0089
rhand -14.7202 12.012
rfingers 7.12502
rthumb 11.4346 -17.6562
lclavicle 1.69961e-014 -3.37934e-015
lhumerus -33.2748 10.9887 83.6225
lradius 23.8517
lwrist -13.1315
lhand -14.3329 27.2026
lfingers 7.12502
lthumb 11.8081 56.8497
rfemur -1.66217 2.03727 28.7568
rtibia 19.8597
rfoot -12.8402 -13.7565
rtoes 0.405967
lfemur -33.5641 5.10474 -19.3438
ltibia 33.5088
lfoot -13.3085 9.11747
ltoes -3.18919
161
root -7.65186 17.4965 -6.97278 1.19809 15.7551 -6.09925
lowerback 5.82248 1.34992 3.79208
upperback 0.254168 2.13906 2.61788
thorax -2.96569 1.03257 0.397137
lowerneck -13.7211 -3.97056 -8.50565
upperneck 22.7009 -4.47999 4.20117
head 9.75299 -2.32315 2.33223
rclavicle -8.22472e-015 2.5842e-015
rhumerus -27.4727 -8.86 -76.3774
rradius 32.0773
rwrist 5.85595
rhand -14.7737 12.587
rfingers 7.12502
rthumb 11.383 -17.084
lclavicle -8.22472e-015 2.5842e-015
lhumerus -33.695 11.0977 83.4389
lradius 23.5424
lwrist -13.2746
lhand -14.4732 27.0837
lfingers 7.12502
lthumb 11.6728 56.7385
rfemur -1.0527 2.0304 28.9408
rtibia 19.193
rfoot -12.7995 -14.0548
rtoes 0.149374
lfemur -33.8154 4.90106 -19.191
ltibia 31.4306
lfoot -13.2812 9.76693
ltoes -1.81886
162
root -7.61127 17.4939 -6.85197 1.34221 16.0734 -6.37045
lowerback 5.82457 1.58344 4.21471
upperback -0.0910755 2.48913 2.46806
thorax -3.29322 1.19051 -0.0262437
lowerneck -12.8923 -4.036 -8.3246
upperneck 22.7208 -4.73973 4.433
head 9.62093 -2.41126 2.36185
rclavicle -3.09359e-014 -1.07344e-014
rhumerus -27.8934 -9.3521 -76.1954
rradius 32.5808
rwrist 4.92498
rhand -13.9002 11.7203
rfingers 7.12502
rthumb 12.2253 -17.9025
lclavicle -3.09359e-014 -1.07344e-014
lhumerus -34.3228 10.0751 83.5288
lradius 23.6456
lwrist -12.5826
lhand -14.7985 27.7799
lfingers 7.12502
lthumb 11.3591 57.4523
rfemur -0.48949 1.97449 29.2668
rtibia 18.5561
rfoot -12.7528 -14.4034
rtoes -0.282999
lfemur -34.0452 4.54021 -18.8176
ltibia 29.4015
lfoot -13.4994 10.3441
ltoes 1.09426
163
root -7.57003 17.492 -6.72865 1.44682 16.3447 -6.52565
lowerback 5.39007 1.65638 4.14556
upperback 0.260076 2.54783 2.74661
thorax -2.69996 1.23685 0.314587
lowerneck -13.6943 -4.12722 -9.09662
upperneck 22.9553 -4.7045 4.78445
head 9.88555 -2.41369 2.61004
rclavicle -4.12478e-014 -1.31198e-014
rhumerus -26.7958 -9.25534 -75.7797
rradius 33.6172
rwrist 2.49134
rhand -11.0731 8.19421
rfingers 7.12502
rthumb 14.9501 -21.2462
lclavicle -4.12478e-014 -1.31198e-014
lhumerus -33.7656 10.5356 84.0275
lradius 23.5322
lwrist -12.6758
lhand -14.863 28.4572
lfingers 7.12502
lthumb 11.2969 58.133
rfemur 0.194049 1.89314 29.4691
rtibia 17.8426
rfoot -12.5733 -14.6492
rtoes -0.637688
lfemur -34.1455 3.92887 -18.4283
ltibia 27.4947
lfoot -13.502 11.0152
ltoes 1.66166
164
root -7.53119 17.4881 -6.59954 1.44572 16.5141 -6.71585
lowerback 4.815 1.43486 3.77122
upperback 1.27266 2.1671 3.49817
thorax -1.38573 1.08045 1.35585
lowerneck -16.4758 -4.17115 -10.5245
upperneck 23.4561 -4.14961 4.90976
head 10.5997 -2.24184 2.94351
rclavicle 0 -1.11319e-014
rhumerus -24.2859 -7.87139 -75.3786
rradius 32.0414
rwrist 5.67274
rhand -15.5512 12.3844
rfingers 7.12502
rthumb 10.6331 -17.3265
lclavicle 0 -1.11319e-014
lhumerus -32.1927 13.2805 84.6678
lradius 23.1986
lwrist -13.9261
lhand -14.4406 29.0836
lfingers 7.12502
lthumb 11.7042 58.7367
rfemur 1.05764 1.9227 29.7438
rtibia 17.0079
rfoot -12.2905 -14.9388
rtoes -1.47592
lfemur -34.152 3.06858 -17.8278
ltibia 25.7941
lfoot -13.5338 12.1459
ltoes -0.526195
165
root -7.48927 17.489 -6.46311 1.43785 16.5272 -6.71031
lowerback 4.62585 2.22597 3.73169
upperback 0.398062 3.23764 2.99444
thorax -2.15017 1.59682 0.785289
lowerneck -12.2637 -4.25383 -8.80192
upperneck 22.3089 -5.00752 4.57871
head 9.39657 -2.56239 2.46476
rclavicle 1.59028e-014 2.18663e-014
rhumerus -26.9025 -9.64539 -74.8442
rradius 33.2339
rwrist 4.06886
rhand -12.6915 9.77131
rfingers 7.12502
rthumb 13.3906 -19.7784
lclavicle 1.59028e-014 2.18663e-014
lhumerus -33.9851 10.599 84.3885
lradius 23.1853
lwrist -13.7386
lhand -14.3635 29.3715
lfingers 7.12502
lthumb 11.7786 59.0203
rfemur 2.03703 2.03756 29.8072
rtibia 16.1841
rfoot -11.9873 -15.1911
rtoes -2.36843
lfemur -33.9694 1.76066 -17.158
ltibia 24.2595
lfoot -13.9043 13.8478
ltoes -1.22553
166
root -7.43726 17.4936 -6.32596 1.57269 16.7168 -6.69413
lowerback 4.42692 2.03079 3.69556
upperback 1.0165 2.93962 3.2148
thorax -1.41873 1.46345 1.07159
lowerneck -14.8418 -4.18207 -9.42368
upperneck 23.0134 -4.52642 4.54773
head 10.1169 -2.37104 2.59011
rclavicle 3.23522e-014 -4.6118e-014
rhumerus -25.1261 -8.9202 -74.9413
rradius 33.0598
rwrist 4.24778
rhand -12.5073 9.96252
rfingers 7.12502
rthumb 13.5681 -19.5754
lclavicle 3.23522e-014 -4.6118e-014
lhumerus -32.9242 12.4036 84.348
lradius 22.741
lwrist -14.3315
lhand -14.3698 28.4639
lfingers 7.12502
lthumb 11.7725 58.113
rfemur 2.82742 1.70628 29.7585
rtibia 15.4184
rfoot -11.7695 -15.1548
rtoes -3.45153
lfemur -33.9563 0.292493 -16.476
ltibia 22.9121
lfoot -14.2026 15.1706
ltoes 0.675567
